<?xml version="1.0" standalone="no"?>
<!DOCTYPE svg PUBLIC "-//W3C//DTD SVG 20010904//EN"
 "http://www.w3.org/TR/2001/REC-SVG-20010904/DTD/svg10.dtd">
<svg version="1.0" xmlns="http://www.w3.org/2000/svg"
 width="700.000000pt" height="700.000000pt" viewBox="0 0 700.000000 700.000000"
 preserveAspectRatio="xMidYMid meet">
<metadata>
Created by potrace 1.11, written by Peter Selinger 2001-2013
</metadata>
<g transform="translate(0.000000,700.000000) scale(0.100000,-0.100000)"
fill="#000000" stroke="none">
<path d="M3278 6995 c-1 -1 -47 -6 -101 -9 -53 -4 -103 -9 -110 -11 -6 -2 -37
-6 -67 -10 -203 -21 -552 -111 -780 -200 -479 -187 -885 -458 -1255 -835 -76
-77 -87 -90 -199 -225 -350 -420 -627 -1015 -722 -1550 -4 -22 -8 -44 -9 -50
-4 -15 -14 -77 -22 -137 -10 -68 -10 -842 -1 -929 4 -36 12 -90 18 -120 6 -30
13 -65 15 -79 67 -372 221 -777 430 -1129 60 -101 198 -308 215 -321 3 -3 28
-34 55 -69 99 -130 316 -359 425 -447 19 -16 46 -39 60 -52 38 -36 277 -214
345 -257 252 -160 503 -283 775 -377 47 -16 92 -31 100 -33 8 -1 55 -15 104
-29 121 -35 331 -78 451 -92 28 -3 56 -7 62 -9 78 -25 674 -26 823 -1 14 3 44
7 68 10 637 82 1267 362 1780 791 135 113 353 334 447 453 11 13 35 43 52 64
174 211 393 597 508 892 68 175 146 446 170 590 3 17 8 38 10 46 9 35 34 219
43 325 14 162 7 626 -12 725 -2 14 -7 50 -11 80 -25 228 -140 642 -242 870
-84 187 -187 381 -278 522 -317 494 -764 907 -1290 1192 -323 176 -769 326
-1100 371 -22 3 -51 8 -65 10 -14 2 -52 7 -85 10 -33 4 -71 9 -85 11 -27 6
-516 14 -522 9z"/>
</g>
</svg>
